/* XPM */
static char * box_xpm[] = {
"20 20 6 1",
" 	c None",
".	c #C5C5C5",
"+	c #C6C6C6",
"@	c #000000",
"#	c #FFB552",
"$	c #AB8854",
"..................+.",
".@@@@@@@@@@@@@@@@@@.",
".@################@.",
".@#$$$$$$$$$$$$$#$@.",
".@#$@@@@@@@@@@@@#$@.",
".@#$@$$@$$$$@$$@#$@.",
".@#$@$#$@##@$#$@#$@.",
".@#$@@$#$@@$#$@@#$@.",
".@#$@$@$#$##$@$@#$@.",
".@#$@$#@$##$@$#@#$@.",
".@#$@$$@####@$#@#$@.",
".@#$@$@$#$##$@#@#$@.",
".@#$@@$#$@@$#$@@#$@.",
".@#$@$#$@$#@$#$@#$@.",
".@#$@$$@$###@$$@#$@.",
".@#$@@@@@@@@@@@@#$@.",
".@###############$@.",
".@#$$$$$$$$$$$$$$$@.",
".@@@@@@@@@@@@@@@@@@.",
"..................+."};
