/* XPM */
static char * box_on_goal_xpm[] = {
"20 20 6 1",
" 	c None",
".	c #C5C5C5",
"+	c #C6C6C6",
"@	c #646464",
"#	c #E3BE8C",
"$	c #B9A78D",
"..................+.",
".@@@@@@@@@@@@@@@@@@.",
".@################@.",
".@#$$$$$$$$$$$$$#$@.",
".@#$@@@@@@@@@@@@#$@+",
".@#$@$$@$$$$@$$@#$@+",
".@#$@$#$@##@$#$@#$@+",
".@#$@@$#$@@$#$@@#$@+",
".@#$@$@$#$##$@$@#$@+",
".@#$@$#@$##$@$#@#$@+",
".@#$@$$@####@$#@#$@+",
".@#$@$@$#$##$@#@#$@+",
".@#$@@$#$@@$#$@@#$@+",
".@#$@$#$@$#@$#$@#$@+",
".@#$@$$@$###@$$@#$@+",
"+@#$@@@@@@@@@@@@#$@+",
"+@###############$@+",
"+@#$$$$$$$$$$$$$$$@+",
"+@@@@@@@@@@@@@@@@@@+",
"++++++++++++++++++++"};
