#define box_on_goal_width 20
#define box_on_goal_height 20
static char box_on_goal_bits[] = {
  0x00, 0x00, 0x00, 0xFE, 0xFF, 0x07, 0x02, 0x00, 0x04, 0x02, 0x00, 0x04, 
  0xF2, 0xFF, 0x04, 0x92, 0x90, 0x04, 0x12, 0x89, 0x04, 0x32, 0xC6, 0x04, 
  0x5A, 0xA0, 0x04, 0x92, 0x90, 0x04, 0x92, 0x90, 0x04, 0x52, 0xA0, 0x04, 
  0x32, 0xC6, 0x04, 0x12, 0x89, 0x04, 0x92, 0x90, 0x04, 0xF2, 0xFF, 0x04, 
  0x02, 0x00, 0x04, 0x02, 0x00, 0x04, 0xFE, 0xFF, 0x07, 0x00, 0x00, 0x00, 
  };
