/* XPM */
static char * goal_xpm[] = {
"20 20 4 1",
" 	c None",
".	c #C6C6C6",
"+	c #D58F8F",
"@	c #E26262",
"....................",
"....................",
"....................",
"....................",
"....................",
"....................",
"........+@@+........",
".......@@@@@@.......",
"......+@@@@@@+......",
"......@@@@@@@@......",
"......@@@@@@@@......",
"......+@@@@@@+......",
".......@@@@@@.......",
"........+@@+........",
"....................",
"....................",
"....................",
"....................",
"....................",
"...................."};
