/* XPM */
static char * keeper_xpm[] = {
"20 20 14 1",
" 	c None",
".	c #C6C6C6",
"+	c #848484",
"@	c #000000",
"#	c #3F3F3F",
"$	c #C5C5C5",
"%	c #FFB552",
"&	c #FFFF84",
"*	c #00CD00",
"=	c #00FF00",
"-	c #5255CB",
";	c #6666FF",
">	c #7A613C",
",	c #AB8854",
".......+@@@@#+.....$",
"......+@%@@@@@+....$",
"......#@&&&&%@#....$",
"......@%&&&&&%@....$",
"......#%@@&@@%#....$",
"......+@&&&&&@+....$",
".......+@%&%@+.....$",
"......+@*@@@*@+....$",
".....+@*=====*@+...$",
".....@=====*==*@...$",
"....+#*=*==**=*#+..$",
"....@&&**==***&&@..$",
"....@&&@-----@&&@..$",
"....+@@-;;;;;-@@+..$",
"......@-;;-;;-@....$",
"......@;;-@;;-@....$",
".....+@;;-@;;-@+...$",
".....@>---@--->@...$",
".....@,,,,@,,,,@...$",
".....#@@@@@@@@@#...$"};
