#define keeper_width 20
#define keeper_height 20
static char keeper_bits[] = {
  0x80, 0x3F, 0x00, 0x80, 0x3E, 0x00, 0xC0, 0x60, 0x00, 0x40, 0x40, 0x00, 
  0x40, 0x5B, 0x00, 0xC0, 0x20, 0x00, 0x00, 0x11, 0x00, 0x80, 0x7E, 0x00, 
  0x60, 0xE0, 0x00, 0x20, 0x80, 0x00, 0x20, 0x81, 0x00, 0x10, 0x18, 0x01, 
  0x90, 0x3F, 0x01, 0xF0, 0xE0, 0x00, 0xC0, 0x6D, 0x00, 0x40, 0x77, 0x00, 
  0xC0, 0xF6, 0x00, 0xA0, 0xDF, 0x00, 0xA0, 0xAD, 0x00, 0xE0, 0xFF, 0x00, 
  };
