#define keeper_on_goal_width 20
#define keeper_on_goal_height 20
static char keeper_on_goal_bits[] = {
  0x00, 0x3F, 0x00, 0x80, 0x3E, 0x00, 0xC0, 0x60, 0x00, 0x40, 0x40, 0x00, 
  0x40, 0x5B, 0x00, 0xC0, 0x20, 0x00, 0x00, 0x10, 0x00, 0x00, 0x35, 0x00, 
  0xA0, 0xD6, 0x00, 0x20, 0x80, 0x00, 0x60, 0x99, 0x00, 0x10, 0x06, 0x01, 
  0x90, 0x29, 0x01, 0x70, 0xF4, 0x00, 0x40, 0x66, 0x00, 0xC0, 0x6E, 0x00, 
  0xC0, 0x57, 0x00, 0x60, 0xFE, 0x00, 0x20, 0xC5, 0x00, 0xE0, 0xFF, 0x00, 
  };
