/* XPM */
static char * wall_xpm[] = {
"20 20 9 1",
" 	c None",
".	c #BD6665",
"+	c #AD7F7E",
"@	c #861410",
"#	c #848484",
"$	c #9E100C",
"%	c #350706",
"&	c #6C6C6C",
"*	c #5D0605",
".++@#+.++++++@#++.++",
"@$@%&+@$$@@$@%#.$@$@",
"@@$%#.@@@@@@@%&+@@$@",
"*%%%&@%%%*%%%%#@%%%%",
"##&###&##&#&##&&###&",
".++.++.+@#+.+++.++@#",
"+@$@@@@@%&.@@$@@$@%&",
".@@@@$@$%#+@@$@$@@*#",
"@%*%*%%%*&@%*%%%%%%&",
"##&#&##&&&####&###&#",
"+.+@#++.+++.+@#++.++",
"@@$%#+@@@$@@$%&.@@@$",
"$@@*&.@$@$@$@%#+@@$@",
"%*%%#@%**%%%**&@%*%%",
"&##&&##&#&##&#&#&###",
"+.+.++++@#++.++++.@&",
"+@@@$@$@*#.@@@@$@@%&",
".$@@@$@$%&+@$@$$@$%#",
"@%%%*%%%%#@*%%%%*%*&",
"&#&##&##&#&##&####&#"};
