#define wall_width 20
#define wall_height 20
static char wall_bits[] = {
  0x08, 0x20, 0x00, 0xCF, 0x3F, 0x0F, 0xCF, 0x3F, 0x0F, 0xEF, 0xBF, 0x0F, 
  0x00, 0x00, 0x00, 0x00, 0x01, 0x04, 0xFE, 0xF9, 0x07, 0x7E, 0xF9, 0x07, 
  0xFF, 0xFD, 0x07, 0x00, 0x01, 0x00, 0x08, 0x20, 0x00, 0xCF, 0x3F, 0x0F, 
  0xCF, 0x3F, 0x0F, 0xEF, 0xBF, 0x0F, 0x00, 0x00, 0x00, 0x00, 0x01, 0x04, 
  0xFE, 0xF9, 0x07, 0xBE, 0xF9, 0x07, 0xFF, 0xFD, 0x07, 0x00, 0x00, 0x00, 
  };
